<?xml version="1.0" encoding="utf-8" standalone="no"?>
<!DOCTYPE svg PUBLIC "-//W3C//DTD SVG 1.1//EN"
  "http://www.w3.org/Graphics/SVG/1.1/DTD/svg11.dtd">
<svg xmlns:xlink="http://www.w3.org/1999/xlink" width="460.8pt" height="345.6pt" viewBox="0 0 460.8 345.6" xmlns="http://www.w3.org/2000/svg" version="1.1">
 <metadata>
  <rdf:RDF xmlns:dc="http://purl.org/dc/elements/1.1/" xmlns:cc="http://creativecommons.org/ns#" xmlns:rdf="http://www.w3.org/1999/02/22-rdf-syntax-ns#">
   <cc:Work>
    <dc:type rdf:resource="http://purl.org/dc/dcmitype/StillImage"/>
    <dc:date>2025-04-27T14:17:36.926491</dc:date>
    <dc:format>image/svg+xml</dc:format>
    <dc:creator>
     <cc:Agent>
      <dc:title>Matplotlib v3.7.1, https://matplotlib.org/</dc:title>
     </cc:Agent>
    </dc:creator>
   </cc:Work>
  </rdf:RDF>
 </metadata>
 <defs>
  <style type="text/css">*{stroke-linejoin: round; stroke-linecap: butt}</style>
 </defs>
 <g id="figure_1">
  <g id="patch_1">
   <path d="M 0 345.6 
L 460.8 345.6 
L 460.8 0 
L 0 0 
z
" style="fill: #ffffff"/>
  </g>
  <g id="axes_1">
   <g id="patch_2">
    <path d="M 57.6 307.584 
L 414.72 307.584 
L 414.72 41.472 
L 57.6 41.472 
z
" style="fill: #ffffff"/>
   </g>
   <g id="matplotlib.axis_1">
    <g id="xtick_1">
     <g id="line2d_1">
      <path d="M 73.832727 307.584 
L 73.832727 41.472 
" clip-path="url(#p2379a85dce)" style="fill: none; stroke: #b0b0b0; stroke-width: 0.8; stroke-linecap: square"/>
     </g>
     <g id="line2d_2">
      <defs>
       <path id="m824bd149d9" d="M 0 0 
L 0 3.5 
" style="stroke: #000000; stroke-width: 0.8"/>
      </defs>
      <g>
       <use xlink:href="#m824bd149d9" x="73.832727" y="307.584" style="stroke: #000000; stroke-width: 0.8"/>
      </g>
     </g>
     <g id="text_1">
      <!-- $\mathdefault{10^{0}}$ -->
      <g transform="translate(65.032727 322.182437) scale(0.1 -0.1)">
       <defs>
        <path id="DejaVuSans-31" d="M 794 531 
L 1825 531 
L 1825 4091 
L 703 3866 
L 703 4441 
L 1819 4666 
L 2450 4666 
L 2450 531 
L 3481 531 
L 3481 0 
L 794 0 
L 794 531 
z
" transform="scale(0.015625)"/>
        <path id="DejaVuSans-30" d="M 2034 4250 
Q 1547 4250 1301 3770 
Q 1056 3291 1056 2328 
Q 1056 1369 1301 889 
Q 1547 409 2034 409 
Q 2525 409 2770 889 
Q 3016 1369 3016 2328 
Q 3016 3291 2770 3770 
Q 2525 4250 2034 4250 
z
M 2034 4750 
Q 2819 4750 3233 4129 
Q 3647 3509 3647 2328 
Q 3647 1150 3233 529 
Q 2819 -91 2034 -91 
Q 1250 -91 836 529 
Q 422 1150 422 2328 
Q 422 3509 836 4129 
Q 1250 4750 2034 4750 
z
" transform="scale(0.015625)"/>
       </defs>
       <use xlink:href="#DejaVuSans-31" transform="translate(0 0.765625)"/>
       <use xlink:href="#DejaVuSans-30" transform="translate(63.623047 0.765625)"/>
       <use xlink:href="#DejaVuSans-30" transform="translate(128.203125 39.046875) scale(0.7)"/>
      </g>
     </g>
    </g>
    <g id="xtick_2">
     <g id="line2d_3">
      <path d="M 214.923694 307.584 
L 214.923694 41.472 
" clip-path="url(#p2379a85dce)" style="fill: none; stroke: #b0b0b0; stroke-width: 0.8; stroke-linecap: square"/>
     </g>
     <g id="line2d_4">
      <g>
       <use xlink:href="#m824bd149d9" x="214.923694" y="307.584" style="stroke: #000000; stroke-width: 0.8"/>
      </g>
     </g>
     <g id="text_2">
      <!-- $\mathdefault{10^{1}}$ -->
      <g transform="translate(206.123694 322.182437) scale(0.1 -0.1)">
       <use xlink:href="#DejaVuSans-31" transform="translate(0 0.684375)"/>
       <use xlink:href="#DejaVuSans-30" transform="translate(63.623047 0.684375)"/>
       <use xlink:href="#DejaVuSans-31" transform="translate(128.203125 38.965625) scale(0.7)"/>
      </g>
     </g>
    </g>
    <g id="xtick_3">
     <g id="line2d_5">
      <path d="M 356.01466 307.584 
L 356.01466 41.472 
" clip-path="url(#p2379a85dce)" style="fill: none; stroke: #b0b0b0; stroke-width: 0.8; stroke-linecap: square"/>
     </g>
     <g id="line2d_6">
      <g>
       <use xlink:href="#m824bd149d9" x="356.01466" y="307.584" style="stroke: #000000; stroke-width: 0.8"/>
      </g>
     </g>
     <g id="text_3">
      <!-- $\mathdefault{10^{2}}$ -->
      <g transform="translate(347.21466 322.182437) scale(0.1 -0.1)">
       <defs>
        <path id="DejaVuSans-32" d="M 1228 531 
L 3431 531 
L 3431 0 
L 469 0 
L 469 531 
Q 828 903 1448 1529 
Q 2069 2156 2228 2338 
Q 2531 2678 2651 2914 
Q 2772 3150 2772 3378 
Q 2772 3750 2511 3984 
Q 2250 4219 1831 4219 
Q 1534 4219 1204 4116 
Q 875 4013 500 3803 
L 500 4441 
Q 881 4594 1212 4672 
Q 1544 4750 1819 4750 
Q 2544 4750 2975 4387 
Q 3406 4025 3406 3419 
Q 3406 3131 3298 2873 
Q 3191 2616 2906 2266 
Q 2828 2175 2409 1742 
Q 1991 1309 1228 531 
z
" transform="scale(0.015625)"/>
       </defs>
       <use xlink:href="#DejaVuSans-31" transform="translate(0 0.765625)"/>
       <use xlink:href="#DejaVuSans-30" transform="translate(63.623047 0.765625)"/>
       <use xlink:href="#DejaVuSans-32" transform="translate(128.203125 39.046875) scale(0.7)"/>
      </g>
     </g>
    </g>
    <g id="xtick_4">
     <g id="line2d_7">
      <defs>
       <path id="m3ee6187aaf" d="M 0 0 
L 0 2 
" style="stroke: #000000; stroke-width: 0.6"/>
      </defs>
      <g>
       <use xlink:href="#m3ee6187aaf" x="60.1596" y="307.584" style="stroke: #000000; stroke-width: 0.6"/>
      </g>
     </g>
    </g>
    <g id="xtick_5">
     <g id="line2d_8">
      <g>
       <use xlink:href="#m3ee6187aaf" x="67.376759" y="307.584" style="stroke: #000000; stroke-width: 0.6"/>
      </g>
     </g>
    </g>
    <g id="xtick_6">
     <g id="line2d_9">
      <g>
       <use xlink:href="#m3ee6187aaf" x="116.30534" y="307.584" style="stroke: #000000; stroke-width: 0.6"/>
      </g>
     </g>
    </g>
    <g id="xtick_7">
     <g id="line2d_10">
      <g>
       <use xlink:href="#m3ee6187aaf" x="141.150226" y="307.584" style="stroke: #000000; stroke-width: 0.6"/>
      </g>
     </g>
    </g>
    <g id="xtick_8">
     <g id="line2d_11">
      <g>
       <use xlink:href="#m3ee6187aaf" x="158.777953" y="307.584" style="stroke: #000000; stroke-width: 0.6"/>
      </g>
     </g>
    </g>
    <g id="xtick_9">
     <g id="line2d_12">
      <g>
       <use xlink:href="#m3ee6187aaf" x="172.451081" y="307.584" style="stroke: #000000; stroke-width: 0.6"/>
      </g>
     </g>
    </g>
    <g id="xtick_10">
     <g id="line2d_13">
      <g>
       <use xlink:href="#m3ee6187aaf" x="183.622839" y="307.584" style="stroke: #000000; stroke-width: 0.6"/>
      </g>
     </g>
    </g>
    <g id="xtick_11">
     <g id="line2d_14">
      <g>
       <use xlink:href="#m3ee6187aaf" x="193.068426" y="307.584" style="stroke: #000000; stroke-width: 0.6"/>
      </g>
     </g>
    </g>
    <g id="xtick_12">
     <g id="line2d_15">
      <g>
       <use xlink:href="#m3ee6187aaf" x="201.250566" y="307.584" style="stroke: #000000; stroke-width: 0.6"/>
      </g>
     </g>
    </g>
    <g id="xtick_13">
     <g id="line2d_16">
      <g>
       <use xlink:href="#m3ee6187aaf" x="208.467725" y="307.584" style="stroke: #000000; stroke-width: 0.6"/>
      </g>
     </g>
    </g>
    <g id="xtick_14">
     <g id="line2d_17">
      <g>
       <use xlink:href="#m3ee6187aaf" x="257.396306" y="307.584" style="stroke: #000000; stroke-width: 0.6"/>
      </g>
     </g>
    </g>
    <g id="xtick_15">
     <g id="line2d_18">
      <g>
       <use xlink:href="#m3ee6187aaf" x="282.241192" y="307.584" style="stroke: #000000; stroke-width: 0.6"/>
      </g>
     </g>
    </g>
    <g id="xtick_16">
     <g id="line2d_19">
      <g>
       <use xlink:href="#m3ee6187aaf" x="299.868919" y="307.584" style="stroke: #000000; stroke-width: 0.6"/>
      </g>
     </g>
    </g>
    <g id="xtick_17">
     <g id="line2d_20">
      <g>
       <use xlink:href="#m3ee6187aaf" x="313.542047" y="307.584" style="stroke: #000000; stroke-width: 0.6"/>
      </g>
     </g>
    </g>
    <g id="xtick_18">
     <g id="line2d_21">
      <g>
       <use xlink:href="#m3ee6187aaf" x="324.713805" y="307.584" style="stroke: #000000; stroke-width: 0.6"/>
      </g>
     </g>
    </g>
    <g id="xtick_19">
     <g id="line2d_22">
      <g>
       <use xlink:href="#m3ee6187aaf" x="334.159393" y="307.584" style="stroke: #000000; stroke-width: 0.6"/>
      </g>
     </g>
    </g>
    <g id="xtick_20">
     <g id="line2d_23">
      <g>
       <use xlink:href="#m3ee6187aaf" x="342.341532" y="307.584" style="stroke: #000000; stroke-width: 0.6"/>
      </g>
     </g>
    </g>
    <g id="xtick_21">
     <g id="line2d_24">
      <g>
       <use xlink:href="#m3ee6187aaf" x="349.558691" y="307.584" style="stroke: #000000; stroke-width: 0.6"/>
      </g>
     </g>
    </g>
    <g id="xtick_22">
     <g id="line2d_25">
      <g>
       <use xlink:href="#m3ee6187aaf" x="398.487273" y="307.584" style="stroke: #000000; stroke-width: 0.6"/>
      </g>
     </g>
    </g>
    <g id="text_4">
     <!-- Generations -->
     <g transform="translate(205.662344 335.860562) scale(0.1 -0.1)">
      <defs>
       <path id="DejaVuSans-47" d="M 3809 666 
L 3809 1919 
L 2778 1919 
L 2778 2438 
L 4434 2438 
L 4434 434 
Q 4069 175 3628 42 
Q 3188 -91 2688 -91 
Q 1594 -91 976 548 
Q 359 1188 359 2328 
Q 359 3472 976 4111 
Q 1594 4750 2688 4750 
Q 3144 4750 3555 4637 
Q 3966 4525 4313 4306 
L 4313 3634 
Q 3963 3931 3569 4081 
Q 3175 4231 2741 4231 
Q 1884 4231 1454 3753 
Q 1025 3275 1025 2328 
Q 1025 1384 1454 906 
Q 1884 428 2741 428 
Q 3075 428 3337 486 
Q 3600 544 3809 666 
z
" transform="scale(0.015625)"/>
       <path id="DejaVuSans-65" d="M 3597 1894 
L 3597 1613 
L 953 1613 
Q 991 1019 1311 708 
Q 1631 397 2203 397 
Q 2534 397 2845 478 
Q 3156 559 3463 722 
L 3463 178 
Q 3153 47 2828 -22 
Q 2503 -91 2169 -91 
Q 1331 -91 842 396 
Q 353 884 353 1716 
Q 353 2575 817 3079 
Q 1281 3584 2069 3584 
Q 2775 3584 3186 3129 
Q 3597 2675 3597 1894 
z
M 3022 2063 
Q 3016 2534 2758 2815 
Q 2500 3097 2075 3097 
Q 1594 3097 1305 2825 
Q 1016 2553 972 2059 
L 3022 2063 
z
" transform="scale(0.015625)"/>
       <path id="DejaVuSans-6e" d="M 3513 2113 
L 3513 0 
L 2938 0 
L 2938 2094 
Q 2938 2591 2744 2837 
Q 2550 3084 2163 3084 
Q 1697 3084 1428 2787 
Q 1159 2491 1159 1978 
L 1159 0 
L 581 0 
L 581 3500 
L 1159 3500 
L 1159 2956 
Q 1366 3272 1645 3428 
Q 1925 3584 2291 3584 
Q 2894 3584 3203 3211 
Q 3513 2838 3513 2113 
z
" transform="scale(0.015625)"/>
       <path id="DejaVuSans-72" d="M 2631 2963 
Q 2534 3019 2420 3045 
Q 2306 3072 2169 3072 
Q 1681 3072 1420 2755 
Q 1159 2438 1159 1844 
L 1159 0 
L 581 0 
L 581 3500 
L 1159 3500 
L 1159 2956 
Q 1341 3275 1631 3429 
Q 1922 3584 2338 3584 
Q 2397 3584 2469 3576 
Q 2541 3569 2628 3553 
L 2631 2963 
z
" transform="scale(0.015625)"/>
       <path id="DejaVuSans-61" d="M 2194 1759 
Q 1497 1759 1228 1600 
Q 959 1441 959 1056 
Q 959 750 1161 570 
Q 1363 391 1709 391 
Q 2188 391 2477 730 
Q 2766 1069 2766 1631 
L 2766 1759 
L 2194 1759 
z
M 3341 1997 
L 3341 0 
L 2766 0 
L 2766 531 
Q 2569 213 2275 61 
Q 1981 -91 1556 -91 
Q 1019 -91 701 211 
Q 384 513 384 1019 
Q 384 1609 779 1909 
Q 1175 2209 1959 2209 
L 2766 2209 
L 2766 2266 
Q 2766 2663 2505 2880 
Q 2244 3097 1772 3097 
Q 1472 3097 1187 3025 
Q 903 2953 641 2809 
L 641 3341 
Q 956 3463 1253 3523 
Q 1550 3584 1831 3584 
Q 2591 3584 2966 3190 
Q 3341 2797 3341 1997 
z
" transform="scale(0.015625)"/>
       <path id="DejaVuSans-74" d="M 1172 4494 
L 1172 3500 
L 2356 3500 
L 2356 3053 
L 1172 3053 
L 1172 1153 
Q 1172 725 1289 603 
Q 1406 481 1766 481 
L 2356 481 
L 2356 0 
L 1766 0 
Q 1100 0 847 248 
Q 594 497 594 1153 
L 594 3053 
L 172 3053 
L 172 3500 
L 594 3500 
L 594 4494 
L 1172 4494 
z
" transform="scale(0.015625)"/>
       <path id="DejaVuSans-69" d="M 603 3500 
L 1178 3500 
L 1178 0 
L 603 0 
L 603 3500 
z
M 603 4863 
L 1178 4863 
L 1178 4134 
L 603 4134 
L 603 4863 
z
" transform="scale(0.015625)"/>
       <path id="DejaVuSans-6f" d="M 1959 3097 
Q 1497 3097 1228 2736 
Q 959 2375 959 1747 
Q 959 1119 1226 758 
Q 1494 397 1959 397 
Q 2419 397 2687 759 
Q 2956 1122 2956 1747 
Q 2956 2369 2687 2733 
Q 2419 3097 1959 3097 
z
M 1959 3584 
Q 2709 3584 3137 3096 
Q 3566 2609 3566 1747 
Q 3566 888 3137 398 
Q 2709 -91 1959 -91 
Q 1206 -91 779 398 
Q 353 888 353 1747 
Q 353 2609 779 3096 
Q 1206 3584 1959 3584 
z
" transform="scale(0.015625)"/>
       <path id="DejaVuSans-73" d="M 2834 3397 
L 2834 2853 
Q 2591 2978 2328 3040 
Q 2066 3103 1784 3103 
Q 1356 3103 1142 2972 
Q 928 2841 928 2578 
Q 928 2378 1081 2264 
Q 1234 2150 1697 2047 
L 1894 2003 
Q 2506 1872 2764 1633 
Q 3022 1394 3022 966 
Q 3022 478 2636 193 
Q 2250 -91 1575 -91 
Q 1294 -91 989 -36 
Q 684 19 347 128 
L 347 722 
Q 666 556 975 473 
Q 1284 391 1588 391 
Q 1994 391 2212 530 
Q 2431 669 2431 922 
Q 2431 1156 2273 1281 
Q 2116 1406 1581 1522 
L 1381 1569 
Q 847 1681 609 1914 
Q 372 2147 372 2553 
Q 372 3047 722 3315 
Q 1072 3584 1716 3584 
Q 2034 3584 2315 3537 
Q 2597 3491 2834 3397 
z
" transform="scale(0.015625)"/>
      </defs>
      <use xlink:href="#DejaVuSans-47"/>
      <use xlink:href="#DejaVuSans-65" x="77.490234"/>
      <use xlink:href="#DejaVuSans-6e" x="139.013672"/>
      <use xlink:href="#DejaVuSans-65" x="202.392578"/>
      <use xlink:href="#DejaVuSans-72" x="263.916016"/>
      <use xlink:href="#DejaVuSans-61" x="305.029297"/>
      <use xlink:href="#DejaVuSans-74" x="366.308594"/>
      <use xlink:href="#DejaVuSans-69" x="405.517578"/>
      <use xlink:href="#DejaVuSans-6f" x="433.300781"/>
      <use xlink:href="#DejaVuSans-6e" x="494.482422"/>
      <use xlink:href="#DejaVuSans-73" x="557.861328"/>
     </g>
    </g>
   </g>
   <g id="matplotlib.axis_2">
    <g id="ytick_1">
     <g id="line2d_26">
      <path d="M 57.6 275.964067 
L 414.72 275.964067 
" clip-path="url(#p2379a85dce)" style="fill: none; stroke: #b0b0b0; stroke-width: 0.8; stroke-linecap: square"/>
     </g>
     <g id="line2d_27">
      <defs>
       <path id="m473ae424f4" d="M 0 0 
L -3.5 0 
" style="stroke: #000000; stroke-width: 0.8"/>
      </defs>
      <g>
       <use xlink:href="#m473ae424f4" x="57.6" y="275.964067" style="stroke: #000000; stroke-width: 0.8"/>
      </g>
     </g>
     <g id="text_5">
      <!-- 2 -->
      <g transform="translate(44.2375 279.763286) scale(0.1 -0.1)">
       <use xlink:href="#DejaVuSans-32"/>
      </g>
     </g>
    </g>
    <g id="ytick_2">
     <g id="line2d_28">
      <path d="M 57.6 235.88924 
L 414.72 235.88924 
" clip-path="url(#p2379a85dce)" style="fill: none; stroke: #b0b0b0; stroke-width: 0.8; stroke-linecap: square"/>
     </g>
     <g id="line2d_29">
      <g>
       <use xlink:href="#m473ae424f4" x="57.6" y="235.88924" style="stroke: #000000; stroke-width: 0.8"/>
      </g>
     </g>
     <g id="text_6">
      <!-- 4 -->
      <g transform="translate(44.2375 239.688459) scale(0.1 -0.1)">
       <defs>
        <path id="DejaVuSans-34" d="M 2419 4116 
L 825 1625 
L 2419 1625 
L 2419 4116 
z
M 2253 4666 
L 3047 4666 
L 3047 1625 
L 3713 1625 
L 3713 1100 
L 3047 1100 
L 3047 0 
L 2419 0 
L 2419 1100 
L 313 1100 
L 313 1709 
L 2253 4666 
z
" transform="scale(0.015625)"/>
       </defs>
       <use xlink:href="#DejaVuSans-34"/>
      </g>
     </g>
    </g>
    <g id="ytick_3">
     <g id="line2d_30">
      <path d="M 57.6 195.814413 
L 414.72 195.814413 
" clip-path="url(#p2379a85dce)" style="fill: none; stroke: #b0b0b0; stroke-width: 0.8; stroke-linecap: square"/>
     </g>
     <g id="line2d_31">
      <g>
       <use xlink:href="#m473ae424f4" x="57.6" y="195.814413" style="stroke: #000000; stroke-width: 0.8"/>
      </g>
     </g>
     <g id="text_7">
      <!-- 6 -->
      <g transform="translate(44.2375 199.613632) scale(0.1 -0.1)">
       <defs>
        <path id="DejaVuSans-36" d="M 2113 2584 
Q 1688 2584 1439 2293 
Q 1191 2003 1191 1497 
Q 1191 994 1439 701 
Q 1688 409 2113 409 
Q 2538 409 2786 701 
Q 3034 994 3034 1497 
Q 3034 2003 2786 2293 
Q 2538 2584 2113 2584 
z
M 3366 4563 
L 3366 3988 
Q 3128 4100 2886 4159 
Q 2644 4219 2406 4219 
Q 1781 4219 1451 3797 
Q 1122 3375 1075 2522 
Q 1259 2794 1537 2939 
Q 1816 3084 2150 3084 
Q 2853 3084 3261 2657 
Q 3669 2231 3669 1497 
Q 3669 778 3244 343 
Q 2819 -91 2113 -91 
Q 1303 -91 875 529 
Q 447 1150 447 2328 
Q 447 3434 972 4092 
Q 1497 4750 2381 4750 
Q 2619 4750 2861 4703 
Q 3103 4656 3366 4563 
z
" transform="scale(0.015625)"/>
       </defs>
       <use xlink:href="#DejaVuSans-36"/>
      </g>
     </g>
    </g>
    <g id="ytick_4">
     <g id="line2d_32">
      <path d="M 57.6 155.739586 
L 414.72 155.739586 
" clip-path="url(#p2379a85dce)" style="fill: none; stroke: #b0b0b0; stroke-width: 0.8; stroke-linecap: square"/>
     </g>
     <g id="line2d_33">
      <g>
       <use xlink:href="#m473ae424f4" x="57.6" y="155.739586" style="stroke: #000000; stroke-width: 0.8"/>
      </g>
     </g>
     <g id="text_8">
      <!-- 8 -->
      <g transform="translate(44.2375 159.538805) scale(0.1 -0.1)">
       <defs>
        <path id="DejaVuSans-38" d="M 2034 2216 
Q 1584 2216 1326 1975 
Q 1069 1734 1069 1313 
Q 1069 891 1326 650 
Q 1584 409 2034 409 
Q 2484 409 2743 651 
Q 3003 894 3003 1313 
Q 3003 1734 2745 1975 
Q 2488 2216 2034 2216 
z
M 1403 2484 
Q 997 2584 770 2862 
Q 544 3141 544 3541 
Q 544 4100 942 4425 
Q 1341 4750 2034 4750 
Q 2731 4750 3128 4425 
Q 3525 4100 3525 3541 
Q 3525 3141 3298 2862 
Q 3072 2584 2669 2484 
Q 3125 2378 3379 2068 
Q 3634 1759 3634 1313 
Q 3634 634 3220 271 
Q 2806 -91 2034 -91 
Q 1263 -91 848 271 
Q 434 634 434 1313 
Q 434 1759 690 2068 
Q 947 2378 1403 2484 
z
M 1172 3481 
Q 1172 3119 1398 2916 
Q 1625 2713 2034 2713 
Q 2441 2713 2670 2916 
Q 2900 3119 2900 3481 
Q 2900 3844 2670 4047 
Q 2441 4250 2034 4250 
Q 1625 4250 1398 4047 
Q 1172 3844 1172 3481 
z
" transform="scale(0.015625)"/>
       </defs>
       <use xlink:href="#DejaVuSans-38"/>
      </g>
     </g>
    </g>
    <g id="ytick_5">
     <g id="line2d_34">
      <path d="M 57.6 115.664759 
L 414.72 115.664759 
" clip-path="url(#p2379a85dce)" style="fill: none; stroke: #b0b0b0; stroke-width: 0.8; stroke-linecap: square"/>
     </g>
     <g id="line2d_35">
      <g>
       <use xlink:href="#m473ae424f4" x="57.6" y="115.664759" style="stroke: #000000; stroke-width: 0.8"/>
      </g>
     </g>
     <g id="text_9">
      <!-- 10 -->
      <g transform="translate(37.875 119.463978) scale(0.1 -0.1)">
       <use xlink:href="#DejaVuSans-31"/>
       <use xlink:href="#DejaVuSans-30" x="63.623047"/>
      </g>
     </g>
    </g>
    <g id="ytick_6">
     <g id="line2d_36">
      <path d="M 57.6 75.589932 
L 414.72 75.589932 
" clip-path="url(#p2379a85dce)" style="fill: none; stroke: #b0b0b0; stroke-width: 0.8; stroke-linecap: square"/>
     </g>
     <g id="line2d_37">
      <g>
       <use xlink:href="#m473ae424f4" x="57.6" y="75.589932" style="stroke: #000000; stroke-width: 0.8"/>
      </g>
     </g>
     <g id="text_10">
      <!-- 12 -->
      <g transform="translate(37.875 79.389151) scale(0.1 -0.1)">
       <use xlink:href="#DejaVuSans-31"/>
       <use xlink:href="#DejaVuSans-32" x="63.623047"/>
      </g>
     </g>
    </g>
    <g id="text_11">
     <!-- Fitness -->
     <g transform="translate(31.795312 191.845187) rotate(-90) scale(0.1 -0.1)">
      <defs>
       <path id="DejaVuSans-46" d="M 628 4666 
L 3309 4666 
L 3309 4134 
L 1259 4134 
L 1259 2759 
L 3109 2759 
L 3109 2228 
L 1259 2228 
L 1259 0 
L 628 0 
L 628 4666 
z
" transform="scale(0.015625)"/>
      </defs>
      <use xlink:href="#DejaVuSans-46"/>
      <use xlink:href="#DejaVuSans-69" x="50.269531"/>
      <use xlink:href="#DejaVuSans-74" x="78.052734"/>
      <use xlink:href="#DejaVuSans-6e" x="117.261719"/>
      <use xlink:href="#DejaVuSans-65" x="180.640625"/>
      <use xlink:href="#DejaVuSans-73" x="242.164062"/>
      <use xlink:href="#DejaVuSans-73" x="294.263672"/>
     </g>
    </g>
   </g>
   <g id="line2d_38">
    <path d="M 57.6 215.851826 
L 414.72 215.851826 
" clip-path="url(#p2379a85dce)" style="fill: none; stroke: #1f77b4; stroke-width: 1.5; stroke-linecap: square"/>
   </g>
   <g id="line2d_39">
    <path d="M 57.6 155.739586 
L 414.72 155.739586 
" clip-path="url(#p2379a85dce)" style="fill: none; stroke: #1f77b4; stroke-width: 1.5; stroke-linecap: square"/>
   </g>
   <g id="line2d_40">
    <path d="M 57.6 75.589932 
L 414.72 75.589932 
" clip-path="url(#p2379a85dce)" style="fill: none; stroke: #1f77b4; stroke-width: 1.5; stroke-linecap: square"/>
   </g>
   <g id="line2d_41">
    <path d="M -1 232.750045 
L 73.832727 232.750045 
L 116.30534 159.747069 
L 183.622839 159.747069 
L 193.068426 142.514893 
L 201.250566 142.514893 
L 208.467725 107.98375 
L 214.923694 131.360733 
L 220.763827 120.740904 
L 231.000071 120.740904 
L 235.541039 120.406947 
L 293.412951 120.340155 
L 295.091824 114.996845 
L 298.31757 114.996845 
L 299.868919 114.061766 
L 301.38196 114.061766 
L 302.858538 113.661018 
L 307.086078 113.661018 
L 308.432836 97.163547 
L 314.755453 97.163547 
L 315.945297 88.547459 
L 333.277722 88.547459 
L 334.159393 88.413877 
L 336.73075 88.347085 
L 337.564437 88.280294 
L 338.386933 87.745963 
L 343.102723 87.679171 
L 343.854573 84.940725 
L 344.59731 84.940725 
L 345.331151 82.335861 
L 397.561184 82.26907 
L 397.871438 72.717903 
L 398.487273 72.717903 
L 398.487273 72.717903 
" clip-path="url(#p2379a85dce)" style="fill: none; stroke: #ff0000; stroke-width: 1.5; stroke-linecap: square"/>
   </g>
   <g id="line2d_42">
    <path d="M -1 274.920978 
L 73.832727 274.916424 
L 116.30534 263.847862 
L 141.150226 262.940812 
L 158.777953 262.829739 
L 172.451081 262.173382 
L 183.622839 262.169246 
L 193.068426 258.876861 
L 201.250566 245.304627 
L 214.923694 227.704744 
L 220.763827 208.890878 
L 226.095452 203.142825 
L 231.000071 191.107169 
L 235.541039 183.333272 
L 239.768579 169.892701 
L 243.723179 172.25148 
L 247.437955 171.978101 
L 250.940338 170.07954 
L 254.253308 175.850004 
L 257.396306 166.322802 
L 260.385925 163.006754 
L 263.23644 162.792844 
L 265.960223 162.1915 
L 268.568065 153.174886 
L 271.069434 156.338933 
L 273.472684 152.430195 
L 275.785224 150.699389 
L 278.013652 143.302188 
L 280.163874 145.792109 
L 282.241192 146.785769 
L 284.25039 149.86727 
L 286.195792 153.398559 
L 288.081326 146.657956 
L 289.910567 150.711149 
L 291.68678 146.162901 
L 293.412951 152.888193 
L 295.091824 144.186675 
L 296.725921 147.917228 
L 298.31757 144.132088 
L 299.868919 141.505922 
L 301.38196 145.655863 
L 302.858538 154.417294 
L 304.30037 146.435392 
L 305.709053 152.892187 
L 307.086078 149.541745 
L 308.432836 149.584128 
L 309.75063 145.909271 
L 311.040678 138.249343 
L 312.304125 137.649995 
L 313.542047 140.686008 
L 317.112476 133.155446 
L 318.257837 133.269724 
L 319.382181 132.465342 
L 320.486265 134.871829 
L 321.570807 136.539173 
L 322.636487 129.91906 
L 323.683949 138.76459 
L 324.713805 138.395796 
L 325.726639 134.917762 
L 326.723003 135.020057 
L 327.703424 131.793434 
L 328.668405 135.385524 
L 329.618424 138.091129 
L 330.553939 138.533594 
L 331.475386 138.583743 
L 332.38318 136.081618 
L 333.277722 132.626884 
L 334.159393 136.191014 
L 335.028556 142.680873 
L 335.885564 137.473143 
L 336.73075 135.031374 
L 337.564437 130.58542 
L 338.386933 127.372112 
L 339.198534 123.670183 
L 339.999527 117.934334 
L 340.790183 113.801701 
L 341.570767 121.514219 
L 342.341532 122.99539 
L 343.102723 124.085354 
L 343.854573 118.876736 
L 344.59731 122.082279 
L 345.331151 118.91335 
L 346.056308 125.039073 
L 346.772983 129.27267 
L 347.481373 122.466607 
L 348.181666 130.158266 
L 348.874047 124.786997 
L 349.558691 129.087163 
L 350.23577 124.917029 
L 350.905449 121.598541 
L 351.567889 121.157629 
L 352.223243 121.514663 
L 352.871662 126.489844 
L 353.513291 123.64644 
L 354.148271 118.434937 
L 354.776738 119.118827 
L 355.398825 117.147261 
L 356.01466 119.0081 
L 356.624367 116.259224 
L 357.228066 116.610046 
L 357.825876 113.272474 
L 358.41791 107.885671 
L 359.004278 105.23554 
L 359.585089 108.332575 
L 360.160445 110.773012 
L 360.73045 106.271805 
L 361.295201 102.839705 
L 361.854794 104.928211 
L 362.409323 101.466155 
L 362.958878 101.780806 
L 363.503549 100.363764 
L 364.04342 101.809431 
L 364.578577 105.40152 
L 365.1091 104.048828 
L 365.635069 101.811428 
L 366.156562 104.356379 
L 366.673654 102.033992 
L 367.186418 102.602496 
L 367.694928 106.560273 
L 368.199252 101.348327 
L 368.699459 107.610739 
L 369.195616 100.945803 
L 369.687787 99.986093 
L 370.176037 101.559796 
L 370.660427 106.284675 
L 371.141018 106.77152 
L 371.617869 107.470278 
L 372.091037 105.818023 
L 372.56058 111.651285 
L 373.026552 103.960735 
L 373.489007 110.98204 
L 373.947999 105.707518 
L 374.403577 102.038208 
L 374.855793 107.830419 
L 375.304697 102.908271 
L 375.750335 101.106236 
L 376.192756 100.100593 
L 376.632006 100.881453 
L 377.068129 107.103036 
L 377.501169 104.637081 
L 377.931171 99.005081 
L 378.358177 102.647097 
L 378.782227 97.210146 
L 379.203363 106.557388 
L 379.621624 102.856791 
L 380.03705 106.309528 
L 380.449678 102.206407 
L 380.859546 102.209736 
L 382.072952 96.573742 
L 382.868743 104.521694 
L 383.262796 101.064297 
L 383.654331 103.608804 
L 384.04338 100.198672 
L 384.429975 104.080116 
L 384.814145 102.973953 
L 385.195922 101.465711 
L 385.575336 104.239217 
L 385.952414 98.396414 
L 386.327186 100.786702 
L 386.69968 101.948783 
L 387.069923 103.645417 
L 387.437942 106.590451 
L 387.803764 101.041663 
L 388.167415 106.760647 
L 388.528921 98.825565 
L 388.888306 99.516778 
L 389.245596 98.168746 
L 389.600814 99.394956 
L 389.953986 104.142691 
L 390.654279 94.904179 
L 391.001448 108.811431 
L 391.689938 102.614478 
L 392.031304 103.486982 
L 392.370779 105.826456 
L 392.708383 98.137459 
L 393.044138 101.353652 
L 393.378062 102.878315 
L 393.710177 103.097994 
L 394.040501 99.91797 
L 394.695856 108.160603 
L 395.020923 107.079293 
L 395.344275 104.45468 
L 395.665929 105.812476 
L 395.985904 101.606394 
L 396.304216 108.788354 
L 396.620884 106.667894 
L 396.935923 108.508762 
L 397.249351 105.826012 
L 397.561184 107.158733 
L 397.871438 104.786862 
L 398.180129 108.684283 
L 398.487273 105.949609 
L 398.487273 105.949609 
" clip-path="url(#p2379a85dce)" style="fill: none; stroke: #0000ff; stroke-width: 1.5; stroke-linecap: square"/>
   </g>
   <g id="line2d_43">
    <path d="M -1 288.561605 
L 73.832727 288.55793 
L 116.30534 274.116442 
L 141.150226 276.103 
L 158.777953 274.497062 
L 172.451081 276.92444 
L 183.622839 277.652677 
L 193.068426 279.614381 
L 201.250566 273.959881 
L 208.467725 273.106496 
L 214.923694 269.745063 
L 220.763827 254.957161 
L 226.095452 252.29917 
L 231.000071 246.578916 
L 235.541039 244.143009 
L 239.768579 231.129121 
L 243.723179 233.067692 
L 247.437955 234.118243 
L 250.940338 233.026014 
L 254.253308 241.80713 
L 257.396306 229.423897 
L 260.385925 224.41445 
L 263.23644 223.462656 
L 265.960223 223.660225 
L 268.568065 209.855156 
L 271.069434 214.120722 
L 273.472684 207.573041 
L 275.785224 206.093896 
L 278.013652 190.366909 
L 280.163874 195.520175 
L 282.241192 196.293871 
L 284.25039 201.027632 
L 286.195792 206.568639 
L 288.081326 195.088014 
L 289.910567 200.598097 
L 291.68678 191.831558 
L 293.412951 203.742733 
L 295.091824 189.961809 
L 296.725921 196.653369 
L 298.31757 189.563348 
L 299.868919 185.162283 
L 301.38196 192.959984 
L 302.858538 208.205335 
L 304.30037 196.791207 
L 305.709053 207.293573 
L 307.086078 200.088271 
L 308.432836 202.522371 
L 309.75063 198.230424 
L 311.040678 184.612754 
L 312.304125 183.13367 
L 313.542047 187.705666 
L 314.755453 185.246974 
L 315.945297 180.812184 
L 317.112476 175.856288 
L 318.257837 177.567917 
L 319.382181 176.33789 
L 320.486265 180.666988 
L 321.570807 182.421677 
L 322.636487 170.662338 
L 323.683949 188.093944 
L 324.713805 186.85304 
L 325.726639 179.550891 
L 326.723003 178.705088 
L 327.703424 174.80624 
L 328.668405 182.489759 
L 329.618424 187.236504 
L 330.553939 188.638686 
L 331.475386 186.726469 
L 332.38318 183.247724 
L 333.277722 176.940487 
L 334.159393 184.564144 
L 335.028556 195.468525 
L 335.885564 186.785965 
L 336.73075 182.830974 
L 337.564437 178.332864 
L 339.198534 173.424177 
L 339.999527 165.406617 
L 340.790183 160.458979 
L 341.570767 174.025087 
L 342.341532 175.619841 
L 343.102723 181.457158 
L 343.854573 171.240418 
L 344.59731 174.368054 
L 345.331151 173.130127 
L 346.772983 192.150225 
L 347.481373 179.839262 
L 348.181666 194.805453 
L 348.874047 186.813327 
L 349.558691 194.25132 
L 350.905449 181.722969 
L 351.567889 180.361264 
L 352.223243 182.23946 
L 352.871662 189.565906 
L 353.513291 184.782947 
L 354.148271 176.064094 
L 354.776738 177.28915 
L 355.398825 172.742144 
L 356.01466 177.238372 
L 356.624367 173.571684 
L 357.228066 171.336356 
L 357.825876 167.303908 
L 358.41791 155.946203 
L 359.004278 149.972347 
L 359.585089 157.091472 
L 360.160445 160.188171 
L 361.295201 141.84451 
L 361.854794 148.2702 
L 362.409323 142.613629 
L 362.958878 141.401243 
L 363.503549 135.708915 
L 364.04342 140.89151 
L 364.578577 151.377795 
L 365.1091 148.44018 
L 365.635069 142.001463 
L 366.156562 148.82291 
L 366.673654 142.868702 
L 367.186418 145.666657 
L 367.694928 154.042337 
L 368.199252 141.051814 
L 368.699459 154.170591 
L 369.195616 140.367856 
L 369.687787 136.482832 
L 370.176037 140.897672 
L 370.660427 153.030102 
L 371.617869 155.745549 
L 372.091037 149.014932 
L 372.56058 164.029151 
L 373.026552 149.771759 
L 373.489007 161.460239 
L 374.403577 142.918511 
L 374.855793 157.44666 
L 375.304697 144.725451 
L 375.750335 141.155788 
L 376.192756 135.793846 
L 376.632006 139.651449 
L 377.068129 155.463008 
L 377.501169 148.719597 
L 377.931171 137.41836 
L 378.358177 143.991666 
L 378.782227 132.813117 
L 379.203363 153.837511 
L 379.621624 146.659033 
L 380.03705 152.554115 
L 380.449678 143.384561 
L 380.859546 144.659151 
L 381.26669 141.870639 
L 382.072952 131.3641 
L 382.472139 144.814448 
L 382.868743 151.209041 
L 383.262796 142.200685 
L 383.654331 149.516097 
L 384.04338 140.11172 
L 384.429975 150.335411 
L 385.195922 144.455858 
L 385.575336 149.518991 
L 385.952414 137.746558 
L 387.437942 155.642288 
L 387.803764 145.264307 
L 388.167415 157.455372 
L 388.528921 138.724141 
L 388.888306 143.173301 
L 389.245596 140.318879 
L 389.600814 142.42359 
L 389.953986 150.976428 
L 390.654279 126.920536 
L 391.001448 164.054862 
L 391.689938 146.997909 
L 392.031304 150.645856 
L 392.370779 157.683943 
L 392.708383 140.125689 
L 393.044138 146.669293 
L 393.378062 150.61749 
L 393.710177 148.49729 
L 394.040501 134.905861 
L 394.369055 145.32514 
L 394.695856 151.704305 
L 395.020923 147.983936 
L 395.344275 141.435068 
L 395.665929 146.743927 
L 395.985904 140.297931 
L 396.304216 149.088879 
L 396.620884 146.116722 
L 396.935923 148.768537 
L 397.561184 145.740049 
L 397.871438 141.936411 
L 398.180129 154.399846 
L 398.487273 149.302506 
L 398.487273 149.302506 
" clip-path="url(#p2379a85dce)" style="fill: none; stroke-dasharray: 9.6,2.4,1.5,2.4; stroke-dashoffset: 0; stroke: #008000; stroke-width: 1.5"/>
   </g>
   <g id="line2d_44">
    <path d="M -1 261.28035 
L 73.832727 261.274919 
L 116.30534 253.579282 
L 141.150226 249.778624 
L 158.777953 251.162416 
L 172.451081 247.422324 
L 183.622839 246.685815 
L 193.068426 238.139341 
L 201.250566 216.649373 
L 208.467725 198.844675 
L 214.923694 185.664425 
L 220.763827 162.824595 
L 226.095452 153.98648 
L 231.000071 135.635422 
L 235.541039 122.523535 
L 239.768579 108.656282 
L 243.723179 111.435267 
L 247.437955 109.837959 
L 250.940338 107.133065 
L 254.253308 109.892878 
L 257.396306 103.221707 
L 260.385925 101.599059 
L 263.23644 102.123033 
L 265.960223 100.722775 
L 268.568065 96.494616 
L 271.069434 98.557144 
L 273.472684 97.28735 
L 275.785224 95.304882 
L 278.013652 96.237467 
L 280.163874 96.064042 
L 282.241192 97.277667 
L 284.25039 98.706908 
L 286.195792 100.22848 
L 288.081326 98.227898 
L 289.910567 100.824202 
L 291.68678 100.494243 
L 293.412951 102.033654 
L 295.091824 98.411541 
L 296.725921 99.181088 
L 298.31757 98.700827 
L 299.868919 97.849561 
L 301.38196 98.351742 
L 302.858538 100.629254 
L 304.30037 96.079576 
L 305.709053 98.490802 
L 307.086078 98.99522 
L 308.432836 96.645885 
L 309.75063 93.588118 
L 311.040678 91.885932 
L 312.304125 92.166321 
L 313.542047 93.666349 
L 314.755453 91.091057 
L 315.945297 91.099864 
L 317.112476 90.454604 
L 318.257837 88.971531 
L 319.382181 88.592795 
L 320.486265 89.07667 
L 321.570807 90.656668 
L 322.636487 89.175782 
L 323.683949 89.435237 
L 324.713805 89.938551 
L 325.726639 90.284633 
L 326.723003 91.335026 
L 327.703424 88.780629 
L 328.668405 88.281288 
L 329.618424 88.945754 
L 330.553939 88.428503 
L 331.475386 90.441018 
L 332.38318 88.915513 
L 334.159393 87.817885 
L 335.028556 89.893221 
L 335.885564 88.16032 
L 336.73075 87.231774 
L 339.999527 70.462052 
L 340.790183 67.144423 
L 341.570767 69.003352 
L 342.341532 70.370939 
L 343.102723 66.713551 
L 343.854573 66.513055 
L 344.59731 69.796503 
L 345.331151 64.696572 
L 346.056308 67.485688 
L 346.772983 66.395116 
L 347.481373 65.093952 
L 348.181666 65.511079 
L 348.874047 62.760666 
L 349.558691 63.923006 
L 350.23577 62.219714 
L 350.905449 61.474112 
L 351.567889 61.953993 
L 352.223243 60.789865 
L 352.871662 63.413782 
L 353.513291 62.509932 
L 354.148271 60.805779 
L 354.776738 60.948505 
L 355.398825 61.552379 
L 356.01466 60.777829 
L 356.624367 58.946765 
L 357.228066 61.883735 
L 357.825876 59.241039 
L 359.004278 60.498734 
L 359.585089 59.573677 
L 360.160445 61.357852 
L 360.73045 61.244398 
L 361.295201 63.8349 
L 361.854794 61.586222 
L 362.409323 60.31868 
L 362.958878 62.160369 
L 363.503549 65.018613 
L 364.04342 62.727352 
L 364.578577 59.425245 
L 365.1091 59.657477 
L 365.635069 61.621393 
L 366.156562 59.889849 
L 366.673654 61.199282 
L 367.186418 59.538334 
L 367.694928 59.078209 
L 368.199252 61.644839 
L 368.699459 61.050888 
L 369.195616 61.52375 
L 369.687787 63.489354 
L 370.176037 62.221919 
L 370.660427 59.539249 
L 371.141018 59.119337 
L 371.617869 59.195006 
L 372.091037 62.621115 
L 372.56058 59.27342 
L 373.026552 58.14971 
L 373.489007 60.503841 
L 373.947999 60.252146 
L 374.403577 61.157906 
L 374.855793 58.214177 
L 375.304697 61.091092 
L 375.750335 61.056684 
L 376.192756 64.407339 
L 376.632006 62.111457 
L 377.068129 58.743064 
L 377.501169 60.554564 
L 377.931171 60.591802 
L 378.358177 61.302528 
L 378.782227 61.607175 
L 379.203363 59.277266 
L 379.621624 59.054549 
L 380.449678 61.028253 
L 380.859546 59.76032 
L 381.26669 58.93411 
L 381.671147 60.821649 
L 382.072952 61.783383 
L 382.472139 57.102011 
L 382.868743 57.834347 
L 383.262796 59.927909 
L 383.654331 57.701511 
L 384.04338 60.285623 
L 384.429975 57.824822 
L 384.814145 58.725676 
L 385.195922 58.475563 
L 385.575336 58.959443 
L 386.327186 59.06319 
L 386.69968 57.670284 
L 387.069923 55.303431 
L 387.437942 57.538615 
L 388.167415 56.065923 
L 388.528921 58.92699 
L 388.888306 55.860255 
L 389.245596 56.018614 
L 389.600814 56.366322 
L 389.953986 57.308955 
L 390.305133 59.644117 
L 390.654279 62.887822 
L 391.001448 53.568 
L 391.34666 55.020108 
L 391.689938 58.231047 
L 392.370779 53.968968 
L 392.708383 56.149228 
L 393.044138 56.038011 
L 393.378062 55.139141 
L 393.710177 57.698699 
L 394.040501 64.93008 
L 394.369055 63.828309 
L 394.695856 64.616901 
L 395.344275 67.474292 
L 395.985904 62.914857 
L 396.304216 68.487828 
L 396.620884 67.219065 
L 396.935923 68.248986 
L 397.249351 64.306834 
L 397.561184 68.577416 
L 397.871438 67.637313 
L 398.180129 62.96872 
L 398.487273 62.596713 
L 398.487273 62.596713 
" clip-path="url(#p2379a85dce)" style="fill: none; stroke-dasharray: 9.6,2.4,1.5,2.4; stroke-dashoffset: 0; stroke: #008000; stroke-width: 1.5"/>
   </g>
   <g id="patch_3">
    <path d="M 57.6 307.584 
L 57.6 41.472 
" style="fill: none; stroke: #000000; stroke-width: 0.8; stroke-linejoin: miter; stroke-linecap: square"/>
   </g>
   <g id="patch_4">
    <path d="M 414.72 307.584 
L 414.72 41.472 
" style="fill: none; stroke: #000000; stroke-width: 0.8; stroke-linejoin: miter; stroke-linecap: square"/>
   </g>
   <g id="patch_5">
    <path d="M 57.6 307.584 
L 414.72 307.584 
" style="fill: none; stroke: #000000; stroke-width: 0.8; stroke-linejoin: miter; stroke-linecap: square"/>
   </g>
   <g id="patch_6">
    <path d="M 57.6 41.472 
L 414.72 41.472 
" style="fill: none; stroke: #000000; stroke-width: 0.8; stroke-linejoin: miter; stroke-linecap: square"/>
   </g>
   <g id="text_12">
    <!-- Population's average and best fitness -->
    <g transform="translate(123.529687 35.472) scale(0.12 -0.12)">
     <defs>
      <path id="DejaVuSans-50" d="M 1259 4147 
L 1259 2394 
L 2053 2394 
Q 2494 2394 2734 2622 
Q 2975 2850 2975 3272 
Q 2975 3691 2734 3919 
Q 2494 4147 2053 4147 
L 1259 4147 
z
M 628 4666 
L 2053 4666 
Q 2838 4666 3239 4311 
Q 3641 3956 3641 3272 
Q 3641 2581 3239 2228 
Q 2838 1875 2053 1875 
L 1259 1875 
L 1259 0 
L 628 0 
L 628 4666 
z
" transform="scale(0.015625)"/>
      <path id="DejaVuSans-70" d="M 1159 525 
L 1159 -1331 
L 581 -1331 
L 581 3500 
L 1159 3500 
L 1159 2969 
Q 1341 3281 1617 3432 
Q 1894 3584 2278 3584 
Q 2916 3584 3314 3078 
Q 3713 2572 3713 1747 
Q 3713 922 3314 415 
Q 2916 -91 2278 -91 
Q 1894 -91 1617 61 
Q 1341 213 1159 525 
z
M 3116 1747 
Q 3116 2381 2855 2742 
Q 2594 3103 2138 3103 
Q 1681 3103 1420 2742 
Q 1159 2381 1159 1747 
Q 1159 1113 1420 752 
Q 1681 391 2138 391 
Q 2594 391 2855 752 
Q 3116 1113 3116 1747 
z
" transform="scale(0.015625)"/>
      <path id="DejaVuSans-75" d="M 544 1381 
L 544 3500 
L 1119 3500 
L 1119 1403 
Q 1119 906 1312 657 
Q 1506 409 1894 409 
Q 2359 409 2629 706 
Q 2900 1003 2900 1516 
L 2900 3500 
L 3475 3500 
L 3475 0 
L 2900 0 
L 2900 538 
Q 2691 219 2414 64 
Q 2138 -91 1772 -91 
Q 1169 -91 856 284 
Q 544 659 544 1381 
z
M 1991 3584 
L 1991 3584 
z
" transform="scale(0.015625)"/>
      <path id="DejaVuSans-6c" d="M 603 4863 
L 1178 4863 
L 1178 0 
L 603 0 
L 603 4863 
z
" transform="scale(0.015625)"/>
      <path id="DejaVuSans-27" d="M 1147 4666 
L 1147 2931 
L 616 2931 
L 616 4666 
L 1147 4666 
z
" transform="scale(0.015625)"/>
      <path id="DejaVuSans-20" transform="scale(0.015625)"/>
      <path id="DejaVuSans-76" d="M 191 3500 
L 800 3500 
L 1894 563 
L 2988 3500 
L 3597 3500 
L 2284 0 
L 1503 0 
L 191 3500 
z
" transform="scale(0.015625)"/>
      <path id="DejaVuSans-67" d="M 2906 1791 
Q 2906 2416 2648 2759 
Q 2391 3103 1925 3103 
Q 1463 3103 1205 2759 
Q 947 2416 947 1791 
Q 947 1169 1205 825 
Q 1463 481 1925 481 
Q 2391 481 2648 825 
Q 2906 1169 2906 1791 
z
M 3481 434 
Q 3481 -459 3084 -895 
Q 2688 -1331 1869 -1331 
Q 1566 -1331 1297 -1286 
Q 1028 -1241 775 -1147 
L 775 -588 
Q 1028 -725 1275 -790 
Q 1522 -856 1778 -856 
Q 2344 -856 2625 -561 
Q 2906 -266 2906 331 
L 2906 616 
Q 2728 306 2450 153 
Q 2172 0 1784 0 
Q 1141 0 747 490 
Q 353 981 353 1791 
Q 353 2603 747 3093 
Q 1141 3584 1784 3584 
Q 2172 3584 2450 3431 
Q 2728 3278 2906 2969 
L 2906 3500 
L 3481 3500 
L 3481 434 
z
" transform="scale(0.015625)"/>
      <path id="DejaVuSans-64" d="M 2906 2969 
L 2906 4863 
L 3481 4863 
L 3481 0 
L 2906 0 
L 2906 525 
Q 2725 213 2448 61 
Q 2172 -91 1784 -91 
Q 1150 -91 751 415 
Q 353 922 353 1747 
Q 353 2572 751 3078 
Q 1150 3584 1784 3584 
Q 2172 3584 2448 3432 
Q 2725 3281 2906 2969 
z
M 947 1747 
Q 947 1113 1208 752 
Q 1469 391 1925 391 
Q 2381 391 2643 752 
Q 2906 1113 2906 1747 
Q 2906 2381 2643 2742 
Q 2381 3103 1925 3103 
Q 1469 3103 1208 2742 
Q 947 2381 947 1747 
z
" transform="scale(0.015625)"/>
      <path id="DejaVuSans-62" d="M 3116 1747 
Q 3116 2381 2855 2742 
Q 2594 3103 2138 3103 
Q 1681 3103 1420 2742 
Q 1159 2381 1159 1747 
Q 1159 1113 1420 752 
Q 1681 391 2138 391 
Q 2594 391 2855 752 
Q 3116 1113 3116 1747 
z
M 1159 2969 
Q 1341 3281 1617 3432 
Q 1894 3584 2278 3584 
Q 2916 3584 3314 3078 
Q 3713 2572 3713 1747 
Q 3713 922 3314 415 
Q 2916 -91 2278 -91 
Q 1894 -91 1617 61 
Q 1341 213 1159 525 
L 1159 0 
L 581 0 
L 581 4863 
L 1159 4863 
L 1159 2969 
z
" transform="scale(0.015625)"/>
      <path id="DejaVuSans-66" d="M 2375 4863 
L 2375 4384 
L 1825 4384 
Q 1516 4384 1395 4259 
Q 1275 4134 1275 3809 
L 1275 3500 
L 2222 3500 
L 2222 3053 
L 1275 3053 
L 1275 0 
L 697 0 
L 697 3053 
L 147 3053 
L 147 3500 
L 697 3500 
L 697 3744 
Q 697 4328 969 4595 
Q 1241 4863 1831 4863 
L 2375 4863 
z
" transform="scale(0.015625)"/>
     </defs>
     <use xlink:href="#DejaVuSans-50"/>
     <use xlink:href="#DejaVuSans-6f" x="56.677734"/>
     <use xlink:href="#DejaVuSans-70" x="117.859375"/>
     <use xlink:href="#DejaVuSans-75" x="181.335938"/>
     <use xlink:href="#DejaVuSans-6c" x="244.714844"/>
     <use xlink:href="#DejaVuSans-61" x="272.498047"/>
     <use xlink:href="#DejaVuSans-74" x="333.777344"/>
     <use xlink:href="#DejaVuSans-69" x="372.986328"/>
     <use xlink:href="#DejaVuSans-6f" x="400.769531"/>
     <use xlink:href="#DejaVuSans-6e" x="461.951172"/>
     <use xlink:href="#DejaVuSans-27" x="525.330078"/>
     <use xlink:href="#DejaVuSans-73" x="552.820312"/>
     <use xlink:href="#DejaVuSans-20" x="604.919922"/>
     <use xlink:href="#DejaVuSans-61" x="636.707031"/>
     <use xlink:href="#DejaVuSans-76" x="697.986328"/>
     <use xlink:href="#DejaVuSans-65" x="757.166016"/>
     <use xlink:href="#DejaVuSans-72" x="818.689453"/>
     <use xlink:href="#DejaVuSans-61" x="859.802734"/>
     <use xlink:href="#DejaVuSans-67" x="921.082031"/>
     <use xlink:href="#DejaVuSans-65" x="984.558594"/>
     <use xlink:href="#DejaVuSans-20" x="1046.082031"/>
     <use xlink:href="#DejaVuSans-61" x="1077.869141"/>
     <use xlink:href="#DejaVuSans-6e" x="1139.148438"/>
     <use xlink:href="#DejaVuSans-64" x="1202.527344"/>
     <use xlink:href="#DejaVuSans-20" x="1266.003906"/>
     <use xlink:href="#DejaVuSans-62" x="1297.791016"/>
     <use xlink:href="#DejaVuSans-65" x="1361.267578"/>
     <use xlink:href="#DejaVuSans-73" x="1422.791016"/>
     <use xlink:href="#DejaVuSans-74" x="1474.890625"/>
     <use xlink:href="#DejaVuSans-20" x="1514.099609"/>
     <use xlink:href="#DejaVuSans-66" x="1545.886719"/>
     <use xlink:href="#DejaVuSans-69" x="1581.091797"/>
     <use xlink:href="#DejaVuSans-74" x="1608.875"/>
     <use xlink:href="#DejaVuSans-6e" x="1648.083984"/>
     <use xlink:href="#DejaVuSans-65" x="1711.462891"/>
     <use xlink:href="#DejaVuSans-73" x="1772.986328"/>
     <use xlink:href="#DejaVuSans-73" x="1825.085938"/>
    </g>
   </g>
   <g id="legend_1">
    <g id="patch_7">
     <path d="M 64.6 152.218875 
L 137.540625 152.218875 
Q 139.540625 152.218875 139.540625 150.218875 
L 139.540625 48.472 
Q 139.540625 46.472 137.540625 46.472 
L 64.6 46.472 
Q 62.6 46.472 62.6 48.472 
L 62.6 150.218875 
Q 62.6 152.218875 64.6 152.218875 
z
" style="fill: #ffffff; opacity: 0.8; stroke: #cccccc; stroke-linejoin: miter"/>
    </g>
    <g id="line2d_45">
     <path d="M 66.6 54.570438 
L 76.6 54.570438 
L 86.6 54.570438 
" style="fill: none; stroke: #1f77b4; stroke-width: 1.5; stroke-linecap: square"/>
    </g>
    <g id="text_13">
     <!-- NFR3 -->
     <g transform="translate(94.6 58.070438) scale(0.1 -0.1)">
      <defs>
       <path id="DejaVuSans-4e" d="M 628 4666 
L 1478 4666 
L 3547 763 
L 3547 4666 
L 4159 4666 
L 4159 0 
L 3309 0 
L 1241 3903 
L 1241 0 
L 628 0 
L 628 4666 
z
" transform="scale(0.015625)"/>
       <path id="DejaVuSans-52" d="M 2841 2188 
Q 3044 2119 3236 1894 
Q 3428 1669 3622 1275 
L 4263 0 
L 3584 0 
L 2988 1197 
Q 2756 1666 2539 1819 
Q 2322 1972 1947 1972 
L 1259 1972 
L 1259 0 
L 628 0 
L 628 4666 
L 2053 4666 
Q 2853 4666 3247 4331 
Q 3641 3997 3641 3322 
Q 3641 2881 3436 2590 
Q 3231 2300 2841 2188 
z
M 1259 4147 
L 1259 2491 
L 2053 2491 
Q 2509 2491 2742 2702 
Q 2975 2913 2975 3322 
Q 2975 3731 2742 3939 
Q 2509 4147 2053 4147 
L 1259 4147 
z
" transform="scale(0.015625)"/>
       <path id="DejaVuSans-33" d="M 2597 2516 
Q 3050 2419 3304 2112 
Q 3559 1806 3559 1356 
Q 3559 666 3084 287 
Q 2609 -91 1734 -91 
Q 1441 -91 1130 -33 
Q 819 25 488 141 
L 488 750 
Q 750 597 1062 519 
Q 1375 441 1716 441 
Q 2309 441 2620 675 
Q 2931 909 2931 1356 
Q 2931 1769 2642 2001 
Q 2353 2234 1838 2234 
L 1294 2234 
L 1294 2753 
L 1863 2753 
Q 2328 2753 2575 2939 
Q 2822 3125 2822 3475 
Q 2822 3834 2567 4026 
Q 2313 4219 1838 4219 
Q 1578 4219 1281 4162 
Q 984 4106 628 3988 
L 628 4550 
Q 988 4650 1302 4700 
Q 1616 4750 1894 4750 
Q 2613 4750 3031 4423 
Q 3450 4097 3450 3541 
Q 3450 3153 3228 2886 
Q 3006 2619 2597 2516 
z
" transform="scale(0.015625)"/>
      </defs>
      <use xlink:href="#DejaVuSans-4e"/>
      <use xlink:href="#DejaVuSans-46" x="74.804688"/>
      <use xlink:href="#DejaVuSans-52" x="132.324219"/>
      <use xlink:href="#DejaVuSans-33" x="201.806641"/>
     </g>
    </g>
    <g id="line2d_46">
     <path d="M 66.6 69.248563 
L 76.6 69.248563 
L 86.6 69.248563 
" style="fill: none; stroke: #1f77b4; stroke-width: 1.5; stroke-linecap: square"/>
    </g>
    <g id="text_14">
     <!-- NFR7 -->
     <g transform="translate(94.6 72.748563) scale(0.1 -0.1)">
      <defs>
       <path id="DejaVuSans-37" d="M 525 4666 
L 3525 4666 
L 3525 4397 
L 1831 0 
L 1172 0 
L 2766 4134 
L 525 4134 
L 525 4666 
z
" transform="scale(0.015625)"/>
      </defs>
      <use xlink:href="#DejaVuSans-4e"/>
      <use xlink:href="#DejaVuSans-46" x="74.804688"/>
      <use xlink:href="#DejaVuSans-52" x="132.324219"/>
      <use xlink:href="#DejaVuSans-37" x="201.806641"/>
     </g>
    </g>
    <g id="line2d_47">
     <path d="M 66.6 83.926688 
L 76.6 83.926688 
L 86.6 83.926688 
" style="fill: none; stroke: #1f77b4; stroke-width: 1.5; stroke-linecap: square"/>
    </g>
    <g id="text_15">
     <!-- NFR12 -->
     <g transform="translate(94.6 87.426688) scale(0.1 -0.1)">
      <use xlink:href="#DejaVuSans-4e"/>
      <use xlink:href="#DejaVuSans-46" x="74.804688"/>
      <use xlink:href="#DejaVuSans-52" x="132.324219"/>
      <use xlink:href="#DejaVuSans-31" x="201.806641"/>
      <use xlink:href="#DejaVuSans-32" x="265.429688"/>
     </g>
    </g>
    <g id="line2d_48">
     <path d="M 66.6 98.604813 
L 76.6 98.604813 
L 86.6 98.604813 
" style="fill: none; stroke: #ff0000; stroke-width: 1.5; stroke-linecap: square"/>
    </g>
    <g id="text_16">
     <!-- best -->
     <g transform="translate(94.6 102.104813) scale(0.1 -0.1)">
      <use xlink:href="#DejaVuSans-62"/>
      <use xlink:href="#DejaVuSans-65" x="63.476562"/>
      <use xlink:href="#DejaVuSans-73" x="125"/>
      <use xlink:href="#DejaVuSans-74" x="177.099609"/>
     </g>
    </g>
    <g id="line2d_49">
     <path d="M 66.6 113.282938 
L 76.6 113.282938 
L 86.6 113.282938 
" style="fill: none; stroke: #0000ff; stroke-width: 1.5; stroke-linecap: square"/>
    </g>
    <g id="text_17">
     <!-- average -->
     <g transform="translate(94.6 116.782938) scale(0.1 -0.1)">
      <use xlink:href="#DejaVuSans-61"/>
      <use xlink:href="#DejaVuSans-76" x="61.279297"/>
      <use xlink:href="#DejaVuSans-65" x="120.458984"/>
      <use xlink:href="#DejaVuSans-72" x="181.982422"/>
      <use xlink:href="#DejaVuSans-61" x="223.095703"/>
      <use xlink:href="#DejaVuSans-67" x="284.375"/>
      <use xlink:href="#DejaVuSans-65" x="347.851562"/>
     </g>
    </g>
    <g id="line2d_50">
     <path d="M 66.6 127.961063 
L 76.6 127.961063 
L 86.6 127.961063 
" style="fill: none; stroke-dasharray: 9.6,2.4,1.5,2.4; stroke-dashoffset: 0; stroke: #008000; stroke-width: 1.5"/>
    </g>
    <g id="text_18">
     <!-- -1 sd -->
     <g transform="translate(94.6 131.461063) scale(0.1 -0.1)">
      <defs>
       <path id="DejaVuSans-2d" d="M 313 2009 
L 1997 2009 
L 1997 1497 
L 313 1497 
L 313 2009 
z
" transform="scale(0.015625)"/>
      </defs>
      <use xlink:href="#DejaVuSans-2d"/>
      <use xlink:href="#DejaVuSans-31" x="36.083984"/>
      <use xlink:href="#DejaVuSans-20" x="99.707031"/>
      <use xlink:href="#DejaVuSans-73" x="131.494141"/>
      <use xlink:href="#DejaVuSans-64" x="183.59375"/>
     </g>
    </g>
    <g id="line2d_51">
     <path d="M 66.6 142.639188 
L 76.6 142.639188 
L 86.6 142.639188 
" style="fill: none; stroke-dasharray: 9.6,2.4,1.5,2.4; stroke-dashoffset: 0; stroke: #008000; stroke-width: 1.5"/>
    </g>
    <g id="text_19">
     <!-- +1 sd -->
     <g transform="translate(94.6 146.139188) scale(0.1 -0.1)">
      <defs>
       <path id="DejaVuSans-2b" d="M 2944 4013 
L 2944 2272 
L 4684 2272 
L 4684 1741 
L 2944 1741 
L 2944 0 
L 2419 0 
L 2419 1741 
L 678 1741 
L 678 2272 
L 2419 2272 
L 2419 4013 
L 2944 4013 
z
" transform="scale(0.015625)"/>
      </defs>
      <use xlink:href="#DejaVuSans-2b"/>
      <use xlink:href="#DejaVuSans-31" x="83.789062"/>
      <use xlink:href="#DejaVuSans-20" x="147.412109"/>
      <use xlink:href="#DejaVuSans-73" x="179.199219"/>
      <use xlink:href="#DejaVuSans-64" x="231.298828"/>
     </g>
    </g>
   </g>
  </g>
 </g>
 <defs>
  <clipPath id="p2379a85dce">
   <rect x="57.6" y="41.472" width="357.12" height="266.112"/>
  </clipPath>
 </defs>
</svg>
