<?xml version="1.0" encoding="UTF-8" standalone="no"?>
<!DOCTYPE svg PUBLIC "-//W3C//DTD SVG 1.1//EN"
 "http://www.w3.org/Graphics/SVG/1.1/DTD/svg11.dtd">
<!-- Generated by graphviz version 12.2.1 (20241206.2353)
 -->
<!-- Pages: 1 -->
<svg width="335pt" height="426pt"
 viewBox="0.00 0.00 334.85 426.20" xmlns="http://www.w3.org/2000/svg" xmlns:xlink="http://www.w3.org/1999/xlink">
<g id="graph0" class="graph" transform="scale(1 1) rotate(0) translate(4 422.2)">
<polygon fill="white" stroke="none" points="-4,4 -4,-422.2 330.85,-422.2 330.85,4 -4,4"/>
<!-- &#45;60 -->
<g id="node1" class="node">
<title>&#45;60</title>
<polygon fill="lightgray" stroke="black" points="214.69,-292.29 186.69,-292.29 186.69,-273.79 214.69,-273.79 214.69,-292.29"/>
<text text-anchor="middle" x="200.69" y="-279.74" font-family="Times New Roman,serif" font-size="9.00">&#45;60</text>
</g>
<!-- RIGHT -->
<g id="node7" class="node">
<title>RIGHT</title>
<ellipse fill="lightblue" stroke="black" cx="295.91" cy="-194.04" rx="30.94" ry="30.94"/>
<text text-anchor="middle" x="295.91" y="-190.74" font-family="Times New Roman,serif" font-size="9.00">RIGHT</text>
</g>
<!-- &#45;60&#45;&gt;RIGHT -->
<g id="edge2" class="edge">
<title>&#45;60&#45;&gt;RIGHT</title>
<path fill="none" stroke="green" stroke-width="0.13" d="M213.57,-273.41C218.43,-269.37 224.05,-264.57 228.98,-260.04 241.72,-248.33 255.31,-234.91 266.82,-223.23"/>
<polygon fill="green" stroke="green" stroke-width="0.13" points="269.06,-225.95 273.56,-216.35 264.06,-221.05 269.06,-225.95"/>
</g>
<!-- &#45;131 -->
<g id="node2" class="node">
<title>&#45;131</title>
<polygon fill="lightgray" stroke="black" points="42.41,-348.29 9.91,-348.29 9.91,-329.79 42.41,-329.79 42.41,-348.29"/>
<text text-anchor="middle" x="26.16" y="-335.74" font-family="Times New Roman,serif" font-size="9.00">&#45;131</text>
</g>
<!-- 2061 -->
<g id="node10" class="node">
<title>2061</title>
<ellipse fill="white" stroke="black" cx="112.37" cy="-339.04" rx="24.04" ry="24.04"/>
<text text-anchor="middle" x="112.37" y="-335.74" font-family="Times New Roman,serif" font-size="9.00">2061</text>
</g>
<!-- &#45;131&#45;&gt;2061 -->
<g id="edge7" class="edge">
<title>&#45;131&#45;&gt;2061</title>
<path fill="none" stroke="green" stroke-width="0.35" d="M42.61,-339.04C52.45,-339.04 65.59,-339.04 77.75,-339.04"/>
<polygon fill="green" stroke="green" stroke-width="0.35" points="77.55,-342.54 87.55,-339.04 77.55,-335.54 77.55,-342.54"/>
</g>
<!-- &#45;177 -->
<g id="node3" class="node">
<title>&#45;177</title>
<polygon fill="lightgray" stroke="black" points="42.41,-136.29 9.91,-136.29 9.91,-117.79 42.41,-117.79 42.41,-136.29"/>
<text text-anchor="middle" x="26.16" y="-123.74" font-family="Times New Roman,serif" font-size="9.00">&#45;177</text>
</g>
<!-- 1366 -->
<g id="node11" class="node">
<title>1366</title>
<ellipse fill="white" stroke="black" cx="112.37" cy="-90.04" rx="24.04" ry="24.04"/>
<text text-anchor="middle" x="112.37" y="-86.74" font-family="Times New Roman,serif" font-size="9.00">1366</text>
</g>
<!-- &#45;177&#45;&gt;1366 -->
<g id="edge4" class="edge">
<title>&#45;177&#45;&gt;1366</title>
<path fill="none" stroke="red" stroke-width="0.25" d="M42.61,-120.26C53.2,-115.6 67.62,-109.26 80.52,-103.6"/>
<polygon fill="red" stroke="red" stroke-width="0.25" points="81.91,-106.81 89.66,-99.58 79.09,-100.4 81.91,-106.81"/>
</g>
<!-- &#45;254 -->
<g id="node4" class="node">
<title>&#45;254</title>
<polygon fill="lightgray" stroke="black" points="42.41,-99.29 9.91,-99.29 9.91,-80.79 42.41,-80.79 42.41,-99.29"/>
<text text-anchor="middle" x="26.16" y="-86.74" font-family="Times New Roman,serif" font-size="9.00">&#45;254</text>
</g>
<!-- &#45;254&#45;&gt;1366 -->
<g id="edge10" class="edge">
<title>&#45;254&#45;&gt;1366</title>
<path fill="none" stroke="green" stroke-width="0.24" d="M42.61,-90.04C52.45,-90.04 65.59,-90.04 77.75,-90.04"/>
<polygon fill="green" stroke="green" stroke-width="0.24" points="77.71,-93.54 87.71,-90.04 77.71,-86.54 77.71,-93.54"/>
</g>
<!-- &#45;910 -->
<g id="node5" class="node">
<title>&#45;910</title>
<polygon fill="lightgray" stroke="black" points="42.41,-62.29 9.91,-62.29 9.91,-43.79 42.41,-43.79 42.41,-62.29"/>
<text text-anchor="middle" x="26.16" y="-49.74" font-family="Times New Roman,serif" font-size="9.00">&#45;910</text>
</g>
<!-- &#45;910&#45;&gt;1366 -->
<g id="edge12" class="edge">
<title>&#45;910&#45;&gt;1366</title>
<path fill="none" stroke="green" stroke-width="0.49" d="M42.61,-59.83C53.2,-64.48 67.62,-70.82 80.52,-76.49"/>
<polygon fill="green" stroke="green" stroke-width="0.49" points="78.76,-79.54 89.32,-80.35 81.57,-73.13 78.76,-79.54"/>
</g>
<!-- LEFT -->
<g id="node6" class="node">
<title>LEFT</title>
<ellipse fill="lightblue" stroke="black" cx="26.16" cy="-392.04" rx="26.16" ry="26.16"/>
<text text-anchor="middle" x="26.16" y="-388.74" font-family="Times New Roman,serif" font-size="9.00">LEFT</text>
</g>
<!-- JUMP -->
<g id="node8" class="node">
<title>JUMP</title>
<ellipse fill="lightblue" stroke="black" cx="200.69" cy="-339.04" rx="28.28" ry="28.28"/>
<text text-anchor="middle" x="200.69" y="-335.74" font-family="Times New Roman,serif" font-size="9.00">JUMP</text>
</g>
<!-- 1867 -->
<g id="node9" class="node">
<title>1867</title>
<ellipse fill="white" stroke="black" cx="200.69" cy="-194.04" rx="24.04" ry="24.04"/>
<text text-anchor="middle" x="200.69" y="-190.74" font-family="Times New Roman,serif" font-size="9.00">1867</text>
</g>
<!-- 1867&#45;&gt;RIGHT -->
<g id="edge6" class="edge">
<title>1867&#45;&gt;RIGHT</title>
<path fill="none" stroke="red" stroke-width="0.46" d="M225.22,-194.04C234.01,-194.04 244.27,-194.04 254.17,-194.04"/>
<polygon fill="red" stroke="red" stroke-width="0.46" points="253.99,-197.54 263.99,-194.04 253.99,-190.54 253.99,-197.54"/>
</g>
<!-- 2061&#45;&gt;JUMP -->
<g id="edge8" class="edge">
<title>2061&#45;&gt;JUMP</title>
<path fill="none" stroke="red" stroke-width="0.2" d="M136.5,-339.04C144.4,-339.04 153.45,-339.04 162.18,-339.04"/>
<polygon fill="red" stroke="red" stroke-width="0.2" points="161.9,-342.54 171.9,-339.04 161.9,-335.54 161.9,-342.54"/>
</g>
<!-- 1366&#45;&gt;RIGHT -->
<g id="edge3" class="edge">
<title>1366&#45;&gt;RIGHT</title>
<path fill="none" stroke="red" stroke-width="0.47" d="M133.84,-101.77C164.36,-119.25 222.2,-152.38 259.62,-173.82"/>
<polygon fill="red" stroke="red" stroke-width="0.47" points="257.63,-176.72 268.05,-178.65 261.11,-170.64 257.63,-176.72"/>
</g>
<!-- 2590 -->
<g id="node14" class="node">
<title>2590</title>
<ellipse fill="white" stroke="black" cx="200.69" cy="-90.04" rx="24.04" ry="24.04"/>
<text text-anchor="middle" x="200.69" y="-86.74" font-family="Times New Roman,serif" font-size="9.00">2590</text>
</g>
<!-- 1366&#45;&gt;2590 -->
<g id="edge13" class="edge">
<title>1366&#45;&gt;2590</title>
<path fill="none" stroke="green" stroke-width="0.12" d="M136.5,-90.04C145.62,-90.04 156.27,-90.04 166.2,-90.04"/>
<polygon fill="green" stroke="green" stroke-width="0.12" points="166.01,-93.54 176.01,-90.04 166.01,-86.54 166.01,-93.54"/>
</g>
<!-- 2587 -->
<g id="node15" class="node">
<title>2587</title>
<ellipse fill="none" stroke="black" cx="200.69" cy="-24.04" rx="24.04" ry="24.04"/>
<text text-anchor="middle" x="200.69" y="-20.74" font-family="Times New Roman,serif" font-size="9.00">2587</text>
</g>
<!-- 1366&#45;&gt;2587 -->
<g id="edge11" class="edge">
<title>1366&#45;&gt;2587</title>
<path fill="none" stroke="red" stroke-width="0.32" d="M132.1,-75.72C143.98,-66.64 159.54,-54.74 172.73,-44.66"/>
<polygon fill="red" stroke="red" stroke-width="0.32" points="174.8,-47.48 180.62,-38.62 170.55,-41.92 174.8,-47.48"/>
</g>
<!-- 1143 -->
<g id="node12" class="node">
<title>1143</title>
<ellipse fill="white" stroke="black" cx="112.37" cy="-220.04" rx="24.04" ry="24.04"/>
<text text-anchor="middle" x="112.37" y="-216.74" font-family="Times New Roman,serif" font-size="9.00">1143</text>
</g>
<!-- 1143&#45;&gt;RIGHT -->
<g id="edge1" class="edge">
<title>1143&#45;&gt;RIGHT</title>
<path fill="none" stroke="red" stroke-width="0.42" d="M136.3,-225.29C159.87,-229.8 197.47,-234.49 228.98,-227.04 239.54,-224.55 250.33,-220.09 260.05,-215.24"/>
<polygon fill="red" stroke="red" stroke-width="0.42" points="261.59,-218.38 268.8,-210.61 258.32,-212.19 261.59,-218.38"/>
</g>
<!-- 1143&#45;&gt;1867 -->
<g id="edge5" class="edge">
<title>1143&#45;&gt;1867</title>
<path fill="none" stroke="red" stroke-width="0.15" d="M135.6,-213.35C145.39,-210.4 157.08,-206.88 167.77,-203.65"/>
<polygon fill="red" stroke="red" stroke-width="0.15" points="168.46,-207.1 177.03,-200.87 166.44,-200.4 168.46,-207.1"/>
</g>
<!-- 2198 -->
<g id="node13" class="node">
<title>2198</title>
<ellipse fill="white" stroke="black" cx="26.16" cy="-220.04" rx="24.04" ry="24.04"/>
<text text-anchor="middle" x="26.16" y="-216.74" font-family="Times New Roman,serif" font-size="9.00">2198</text>
</g>
<!-- 2198&#45;&gt;1143 -->
<g id="edge9" class="edge">
<title>2198&#45;&gt;1143</title>
<path fill="none" stroke="red" stroke-width="0.27" d="M50.62,-220.04C59.01,-220.04 68.65,-220.04 77.73,-220.04"/>
<polygon fill="red" stroke="red" stroke-width="0.27" points="77.62,-223.54 87.62,-220.04 77.62,-216.54 77.62,-223.54"/>
</g>
<!-- 2590&#45;&gt;RIGHT -->
<g id="edge14" class="edge">
<title>2590&#45;&gt;RIGHT</title>
<path fill="none" stroke="red" stroke-width="0.25" d="M217.51,-107.68C231.23,-123 251.41,-145.51 267.72,-163.71"/>
<polygon fill="red" stroke="red" stroke-width="0.25" points="264.92,-165.82 274.2,-170.93 270.13,-161.15 264.92,-165.82"/>
</g>
</g>
</svg>
